# xmcd
#
# Track frame offsets: 
#        150
#        25487
#        44417
#        67845
#        89092
#        114097
#        138757
#        163087
#        184335
#        198140
#        215535
#
# Disc length: 3069 seconds
#
# Revision: 2
# Processed by: cddbd v1.4PL0 Copyright (c) Steve Scherf et al.
# Submitted via: ExactAudioCopy v0.90b4
#
DISCID=970bfb0b
DTITLE=Luther Johnson Jr. - Luther's Blues
DYEAR=1992
DGENRE=
TTITLE0=Back At The Chicken Shack
TTITLE1=Come Baby
TTITLE2=Too Many Drivers
TTITLE3=Sweet Home Chicago
TTITLE4=Luther's Blues
TTITLE5=I Can't Stop
TTITLE6=Nobody Wants To Lose
TTITLE7=Mother-In-Law
TTITLE8=Better Watch Yourself
TTITLE9=Little Queenie
TTITLE10=Boogie In The Dark
EXTD=
EXTT0=
EXTT1=
EXTT2=
EXTT3=
EXTT4=
EXTT5=
EXTT6=
EXTT7=
EXTT8=
EXTT9=
EXTT10=
PLAYORDER=
